<svg xmlns="http://www.w3.org/2000/svg" width="326" height="68"><path d="M7.298 54.252a.953.953 0 01-.659.327.592.592 0 01-.429-.185.992.992 0 01-.248-.535 5.7 5.7 0 01-.066-.895 4.193 4.193 0 01.132-1.069q.352-1.178.857-2.662.523-1.533.765-2.314l.176-.545 1.6-3.819q.088-.175.231-.436t.3-.611l.791-1.724q.22-.5.7-1.571t.884-1.878q1.8-3.71 2.77-5.521 2.638-4.976 4.418-7.987 1.319-2.313 4.133-6.809l.616-.982q.418-.655.813-1.2.242-.327.681-.982a.335.335 0 00.077-.218 2.118 2.118 0 01.033-.262h-2.044l-.659-.022q-.879-.044-1.341-.044-.176 0-.407.022t-.341.044q-.154.022-.385.044t-.561.022h-8.748q-1.781 0-2.682.044-1.561.087-3.5.306l-1.385.131q-.088 0-.385.022a2.87 2.87 0 00-.539.087q-.154.044-.484.109a1.275 1.275 0 00-.561.251 1.214 1.214 0 00-.363.556.482.482 0 01-.484.327.941.941 0 01-.418-.109 1.079 1.079 0 01-.374-.306.881.881 0 01-.22-.524 1.169 1.169 0 01.286-.7 1.654 1.654 0 01.7-.546 4.677 4.677 0 01.989-.24q3.275-.5 5.584-.633 1.737-.109 5.232-.153 1.319 0 1.978-.022h1.1l4.55.022 3.1-.022q1.033-.022 3.1-.022a.724.724 0 00.4-.1 1.164 1.164 0 00.308-.316q.462-.611 1.385-1.7a6.087 6.087 0 01.616-.567 1.15 1.15 0 01.659-.284.461.461 0 01.374.2 1.192 1.192 0 01.242.764 1.244 1.244 0 01-.132.567 6.4 6.4 0 01-.4.655l-.308.5q.2.022.462.076a2.188 2.188 0 00.418.055l7.342-.153 6.045-.065q1.869 0 2.792.022 1.627.044 5.056.175l1.231.044q1.385 0 2.462.087.813.044 2.286.218l1.1.109a.713.713 0 01.4.175.674.674 0 01.132.48.6.6 0 01-.528.677 1.989 1.989 0 01-.319.022 1.989 1.989 0 00-.319.022l-2.044-.022q-.681 0-1.033.022a6.023 6.023 0 00-.791.109q-.44.087-.616.109l-.352.044a.3.3 0 01-.264-.131 4.25 4.25 0 01-.286-.633q-2.167-.089-5.227-.089-3.187 0-7.595.109t-8.87.24l-3.627.109q.022-.044-1.89 2.881-1.693 2.466-2.33 3.535-1.759 2.859-3.847 6.525-2.55 4.474-3.935 7.267-1.473 2.903-4.246 8.795-.9 1.898-1.69 3.819a14.7 14.7 0 00-1.41 4.844q0-.175.088 1.157a5.538 5.538 0 01.066.764 1.934 1.934 0 01-.231.917 7.275 7.275 0 01-.887 1.2zM25.741 43.82q-.22.022-.659.022a5.78 5.78 0 01-3.8-1.288 3.591 3.591 0 01-1-1.3 3.845 3.845 0 01-.341-1.6 4.451 4.451 0 01.308-1.593 13.347 13.347 0 011.934-3.252 7.966 7.966 0 011.088-1.124q.583-.491 1.506-1.168l.484-.371a2.443 2.443 0 01.868-.393 4.234 4.234 0 011.044-.131 1.857 1.857 0 011.418.6 2.05 2.05 0 01.561 1.451 2.755 2.755 0 01-.725 1.942 20.088 20.088 0 01-4.484 3.666 7.745 7.745 0 01-1.6.655l-.9.306a6.136 6.136 0 00.836 1.258 2.352 2.352 0 001.066.666q.154.044.616.185a8.627 8.627 0 00.846.218 3.684 3.684 0 00.714.076 2.744 2.744 0 001.6-.524 1.319 1.319 0 00.286.022 2.432 2.432 0 00.747-.12 6.317 6.317 0 00.857-.36 5.955 5.955 0 011.215-.463 2.236 2.236 0 00.769-.306l.506-.306.572-.349q1.363-.807 2.946-1.811a2.205 2.205 0 00.451-.371q.231-.24.319-.327.484-.436 1.385-1.288a1.239 1.239 0 01.154.546 1.153 1.153 0 01-.462.829q-1.518 1.464-2.354 2.119-.967.764-3.034 2.16a10.186 10.186 0 01-3.671 1.375l-.725.129a6.54 6.54 0 01-1.341.22zm-4.088-5.106q.176-.022.319-.033a.61.61 0 00.187-.033l.528-.327q.22-.131 1.374-.829t2.121-1.4a4.355 4.355 0 001.055-1.178l.286-.371a1.2 1.2 0 00.264-.677.893.893 0 00-.2-.546 1.01 1.01 0 00-.341-.251 1.046 1.046 0 00-.451-.1 1.09 1.09 0 00-.594.153 13.256 13.256 0 00-1.077.786l-.616.458a5.53 5.53 0 00-1.319 1.255 13.71 13.71 0 00-1.1 1.757 4.547 4.547 0 00-.286.807zm18.223-4.583q-.132-.087-.385-.229a1.482 1.482 0 01-.4-.306.536.536 0 01-.143-.36.776.776 0 01.209-.491 1.021 1.021 0 01.517-.338 2.184 2.184 0 01.659-.131 1.3 1.3 0 01.308.044 1.085 1.085 0 01.462.36.821.821 0 01.22.491.519.519 0 01-.132.349.886.886 0 01-.352.24zm-5.979 11.653a.776.776 0 01-.572-.218.9.9 0 01-.242-.611 7.2 7.2 0 01.835-3.579 29.175 29.175 0 013.76-5.676 2.953 2.953 0 01.484-.458.954.954 0 01.484-.218.378.378 0 01.286.153 1.27 1.27 0 01.242.426.687.687 0 01.044.4 4.18 4.18 0 01-.747 1.069 1.255 1.255 0 01-.242.218.927.927 0 00-.242.24l-.747 1.288q-1.011 1.7-1.253 2.051a9.9 9.9 0 00-1.385 3.1q.066.109.253.393a.971.971 0 01.187.524.777.777 0 01-.341.633 1.279 1.279 0 01-.804.265zm10.552-11.566q-.989 0-.989-.938a1.123 1.123 0 01.22-.742.785.785 0 01.637-.262q1.077 0 1.077.851a1.1 1.1 0 01-.319.731.876.876 0 01-.626.36zM28.006 67.651a2.137 2.137 0 01-1.165.349 2.372 2.372 0 01-1.616-.633 2.217 2.217 0 01-.78-1.549q-.022-.262-.022-.764a9.479 9.479 0 011.539-5.216q.088-.131.659-1.091.154-.24.341-.556t.451-.709q1.209-1.768 2.011-2.793a11.141 11.141 0 011.88-1.877 23.821 23.821 0 001.825-1.68q.813-.807 1.253-1.2 1.6-1.44 3.3-2.75a6.568 6.568 0 001.38-1.398 4.716 4.716 0 00.747-1.746A19.89 19.89 0 0141.239 40l.681-1.571q.286-.611.484-1.124a4.641 4.641 0 00.264-.927q.088-.655.572-.655h.341a1.165 1.165 0 01.473.087.543.543 0 01.286.284.817.817 0 01.066.327 2.986 2.986 0 01-.088.546.92.92 0 01-.209.273 1.163 1.163 0 00-.209.251q-.264.436-1.209 2.6-.419 1.089-1.166 3.315-.044.175-.088.382t-.11.491l1.235-.895q1.341-.938 2.2-1.637 1.781-1.44 3.242-2.521t2.957-2a1.4 1.4 0 01.769-.284 1.051 1.051 0 01.242.022.339.339 0 01-.066.436 3.464 3.464 0 01-.572.48l-5.962 4.696q-1.121.895-2.132 1.789l-.725.633a4.215 4.215 0 01-.681.546 2.973 2.973 0 00-1.044.807 4.774 4.774 0 00-.637 1q-.231.5-.583 1.462-.462 1.288-1.561 3.819l-.264.589q-1.055 2.313-1.934 4.037-.769 1.44-1.759 3.077-.264.436-.418.655-1.077 1.833-1.956 3.033a17.672 17.672 0 01-1.749 2.077 11.062 11.062 0 01-1.923 1.551zm-.637-1.091a14.935 14.935 0 001.2-.938 6.779 6.779 0 00.868-.917q1.209-1.615 3.231-4.736.286-.436.967-1.7.11-.24.374-.72.11-.2.308-.513a5.024 5.024 0 00.308-.556q.264-.589.484-1.091t.418-.917q.154-.371.9-2.008l.989-2.182.681-1.506-.11-.087-.4.262q-.044.044-1.341 1.2-1.825 1.593-2.88 2.684l-.304.325q-1.429 1.462-2.4 2.553a21.438 21.438 0 00-1.759 2.27l-.572.829q-.9 1.309-1.4 2.15a9.833 9.833 0 00-.824 1.8q-.242.807-.352 1.288a4.486 4.486 0 00-.11 1 3.065 3.065 0 00.044.611 1.479 1.479 0 00.385.786.936.936 0 00.692.306 1.106 1.106 0 00.602-.193zM54.78 34.131q-.132-.087-.385-.229a1.482 1.482 0 01-.4-.306.536.536 0 01-.143-.36.776.776 0 01.21-.491 1.021 1.021 0 01.517-.338 2.184 2.184 0 01.659-.131 1.3 1.3 0 01.308.044 1.085 1.085 0 01.462.36.821.821 0 01.22.491.519.519 0 01-.132.349.886.886 0 01-.352.24zm-5.979 11.653a.776.776 0 01-.572-.218.9.9 0 01-.242-.611 7.2 7.2 0 01.835-3.579 29.175 29.175 0 013.76-5.676 2.953 2.953 0 01.48-.456.954.954 0 01.484-.218.378.378 0 01.286.153 1.27 1.27 0 01.242.426.687.687 0 01.044.4 4.18 4.18 0 01-.747 1.069 1.254 1.254 0 01-.242.218.927.927 0 00-.242.24l-.745 1.291q-1.011 1.7-1.253 2.051a9.9 9.9 0 00-1.385 3.1q.066.109.253.393a.971.971 0 01.187.524.777.777 0 01-.341.633 1.279 1.279 0 01-.802.26zm33.743 15.124q-1.715.218-2.781.316t-2.077.1a7.5 7.5 0 01-3.231-.546 2.488 2.488 0 01-1.088-.862 2.054 2.054 0 01-.385-1.189 2.249 2.249 0 01.813-1.7 4.41 4.41 0 00-.088.873 2.068 2.068 0 001 1.964 5.674 5.674 0 002.781.567 34.046 34.046 0 003.913-.349 83.354 83.354 0 0025.61-7.9 60.79 60.79 0 0014.4-9.668 36.036 36.036 0 004.243-4.7 21.842 21.842 0 002.858-5.161 11.219 11.219 0 00.791-4.059 11.474 11.474 0 00-3.451-7.856 19.378 19.378 0 00-3.8-3.142 34.952 34.952 0 00-4.792-2.51 40.953 40.953 0 00-13.959-3.3q-2.044-.109-3.715-.109a43.06 43.06 0 00-8.177.72l-2.638.524q-1.363.262-2.8.567t-2.649.633a45.566 45.566 0 00-8.529 3.153 30.614 30.614 0 00-7.1 4.834 15.958 15.958 0 00-2.4 2.793 4.255 4.255 0 00-.813 2.4 3.451 3.451 0 00.6 1.953 5.343 5.343 0 001.726 1.582 18.58 18.58 0 003.187 1.495q1.627.578 4.331 1.386l1.209.349q4.045 1.2 6.5 2.019a45.013 45.013 0 014.869 1.953q.484.218 1.759.982.374.262 1.143.7 4.023-7.245 6.155-10.933 2.044-3.666 4.462-7.529a2.944 2.944 0 01.495-.666.75.75 0 01.517-.185 2.451 2.451 0 01.572.1q.374.1.813.229-.132.284-.286.687t-.242.6a13.038 13.038 0 01-.517 1.3 4.3 4.3 0 01-.6.949 11.652 11.652 0 00-1.176 1.659q-.495.851-1.242 2.313-.33.72-.835 1.637-.616 1.135-1.978 3.994l-1.011 2.095q-.044.087-.231.5a1.6 1.6 0 01-.473.633 1.341 1.341 0 01-.681.262.847.847 0 00-.374.2 2.692 2.692 0 00-.319.327q-.143.175-.187.218-.154.262-.374.742a5.981 5.981 0 01-.33.677 3.791 3.791 0 00-.7 2.182 4.163 4.163 0 00.264 1.44 3.245 3.245 0 01.242 1.244 5.167 5.167 0 01-.374 1.768 21.5 21.5 0 01-1.814 3.623 12.828 12.828 0 01-2.5 2.881 4.263 4.263 0 01-1.187.807l-.4.24q-.374.218-.7.393t-.594.306q-.879.436-1.319.677l-.22-.218q-.132-.131-.11-.175.044-.262.462-3.055.066-.393.2-1.157t.2-1.353a2.533 2.533 0 011.814-2.3 3.372 3.372 0 001.978-1.877q.242-.48.989-2.095l.682-1.46a5.053 5.053 0 00-1.4-1.309A17.184 17.184 0 0085.336 39l-.616-.262a41.708 41.708 0 00-4.089-1.56q-2.066-.666-5.254-1.6l-3.626-1.098a36.745 36.745 0 01-4.078-1.451 10.9 10.9 0 01-2.979-1.953 5.477 5.477 0 01-1.319-1.757 4.7 4.7 0 01-.484-2.04 3.821 3.821 0 01.374-1.7 14.037 14.037 0 012.022-3.11 19.328 19.328 0 012.88-2.7q1.011-.786 2.066-1.451t2.748-1.669l.506-.306a19.316 19.316 0 012.814-1.375q1.451-.567 3.8-1.353l1.517-.524a53.612 53.612 0 0112.222-2.51q3.583-.327 6.485-.327a42.936 42.936 0 0111.827 1.528 46.019 46.019 0 017.947 3.077 24.533 24.533 0 016.3 4.561q4.177 4.212 4.177 9.1a13.894 13.894 0 01-1.451 5.936 21.685 21.685 0 01-2.583 4.277 34.545 34.545 0 01-3.572 3.928A55.57 55.57 0 01109.802 52q-3.561 1.768-6.078 2.913T98.635 57a76.225 76.225 0 01-15.321 3.82zm2.99-9.427a8.388 8.388 0 002.2-1.931 9.931 9.931 0 001.548-2.62 7.23 7.23 0 00.561-2.673 3.927 3.927 0 00-.044-.7q-1.517 2.773-4.265 7.923zm-11.717 5.433l.022.065-.044.044zm62.254-13.094q-.22.022-.659.022a5.78 5.78 0 01-3.8-1.288 3.591 3.591 0 01-1-1.3 3.845 3.845 0 01-.341-1.6 4.451 4.451 0 01.308-1.593 13.347 13.347 0 011.934-3.252 7.966 7.966 0 011.088-1.124q.583-.491 1.506-1.168l.484-.371a2.443 2.443 0 01.868-.393 4.234 4.234 0 011.044-.131 1.857 1.857 0 011.418.6 2.05 2.05 0 01.561 1.451 2.755 2.755 0 01-.725 1.942 20.088 20.088 0 01-4.484 3.666 7.745 7.745 0 01-1.6.655l-.9.306a6.136 6.136 0 00.846 1.255 2.352 2.352 0 001.066.666q.154.044.616.185a8.628 8.628 0 00.846.218 3.684 3.684 0 00.714.076 2.744 2.744 0 001.6-.524 1.319 1.319 0 00.286.022 2.432 2.432 0 00.747-.12 6.316 6.316 0 00.857-.36 5.955 5.955 0 011.205-.46 2.237 2.237 0 00.769-.306l.506-.306.572-.349q1.363-.807 2.946-1.811a2.2 2.2 0 00.451-.371q.231-.24.319-.327.484-.436 1.385-1.288a1.239 1.239 0 01.154.546 1.153 1.153 0 01-.462.829q-1.517 1.462-2.352 2.117-.967.764-3.034 2.16a10.186 10.186 0 01-3.671 1.375l-.725.131a6.54 6.54 0 01-1.343.22zm-4.089-5.107q.176-.022.319-.033a.61.61 0 00.187-.033l.528-.327q.22-.131 1.374-.829t2.121-1.4a4.355 4.355 0 001.055-1.178l.286-.371a1.2 1.2 0 00.264-.677.893.893 0 00-.2-.546 1.01 1.01 0 00-.341-.251 1.046 1.046 0 00-.451-.1 1.09 1.09 0 00-.594.153 13.258 13.258 0 00-1.077.786l-.616.458a5.53 5.53 0 00-1.319 1.255 13.709 13.709 0 00-1.1 1.757 4.546 4.546 0 00-.286.807zm20.642 9.777a.866.866 0 01-.275-.535 4.024 4.024 0 01-.077-.8 2.757 2.757 0 01.418-1.266q2.946-5.325 5.825-10.322 1.3-2.248 3.451-5.718l1.407-2.335a.518.518 0 00.011-.185 1.863 1.863 0 01-.011-.207q-.132 0-1.627.2-.308.044-1.044.131t-1.308.109q-.308.022-.9.022a12.73 12.73 0 01-2.4-.2 1.236 1.236 0 01-.7-.382 1.026 1.026 0 01-.264-.709 1.423 1.423 0 01.55-1.091 4.358 4.358 0 01.89-.578q.539-.273 1.022-.513a8.072 8.072 0 013.187-.742 5.805 5.805 0 012.2.436 11.234 11.234 0 011.407.829l.484.327q.044-.022.176-.1t.132-.142a9.031 9.031 0 01.681-2.346 18.444 18.444 0 011.275-2.368l2.242-3.579 1.209-1.964a1.1 1.1 0 00.22-.655 2.184 2.184 0 00-.11-.567 2.982 2.982 0 01-.11-.807 2.213 2.213 0 01.176-.873 18.348 18.348 0 011.715-3.273 34.951 34.951 0 015.584-5.8q1.495-1.266 2.55-2.03a1.588 1.588 0 01.9-.458.875.875 0 01.594.262.852.852 0 01.286.611 2 2 0 01-.4.982l-1.028 1.529-1.055 1.549q-2.77 3.994-4.572 6.612l-.791 1.157q-2.858 4.19-4.265 6.35-.506.786-2.066 3.383-1.011 1.724-1.473 2.466l1.165-.262q1.319-.284 1.671-.393a70.046 70.046 0 0012.286-4.626 18.73 18.73 0 001.967-1.058q.934-.578 2.539-1.626.967-.655 1.473-.96a19.341 19.341 0 002.264-1.724q1.1-1.047 2.748-2.881a1.088 1.088 0 00.242-.371 1.591 1.591 0 00.11-.436 3.661 3.661 0 00.044-.5.752.752 0 00-.154-.567 1.113 1.113 0 00-.637-.153 1.65 1.65 0 00-.594.109 8.314 8.314 0 00-4.089 3.1 6.038 6.038 0 01-.7.807l-.374.393q-.681-.436-.681-.917a1.044 1.044 0 01.264-.655 11.258 11.258 0 015.913-4.255 3.068 3.068 0 01.616-.087 2.161 2.161 0 011.484.556 1.849 1.849 0 01.626 1.451 2.894 2.894 0 01-.176.895 6.043 6.043 0 01-1.066 1.9 23.311 23.311 0 01-1.9 1.964 28.048 28.048 0 01-4.309 3.383 56.639 56.639 0 01-5.342 2.99 76.6 76.6 0 01-12.992 4.8l-1.341.327-1.583.415q-.044.131-.088.273a.306.306 0 00-.022.185q.923 2.968 1.638 4.866a24.022 24.022 0 001.858 3.819 15.909 15.909 0 002.792 3.47 12.115 12.115 0 006.133 3.208 23.741 23.741 0 004.287.371 35.017 35.017 0 004.506-.306 60.6 60.6 0 0013.673-3.3q.308-.109 2.022-.829 1.649-.7 2.55-1.026a4.467 4.467 0 011.407-.327q.528 0 .462.458-.681.306-1.253.567t-1.033.48q-2.55 1.2-4.243 1.888a32.114 32.114 0 01-3.715 1.233q-4.265 1.157-7.837 1.789a40.7 40.7 0 01-7.111.633 16.531 16.531 0 01-7.914-1.811 13.616 13.616 0 01-3.979-3.317 22.362 22.362 0 01-4.511-8.643 13.891 13.891 0 00-.55-1.418l-.286-.655a27.136 27.136 0 00-3.451 4.856q-2.594 4.157-4.957 8.467a29.613 29.613 0 00-2.583 5.4 21.049 21.049 0 002.924-2.291q1.187-1.047 2.022-1.68a9.327 9.327 0 011.8-1.069.709.709 0 01.374.546.718.718 0 01-.308.524l-6.089 5.085a1.941 1.941 0 01-.747.48 4.4 4.4 0 01-.945.131.848.848 0 01-.416-.086zm23.389-41.682l.308-.349a5.274 5.274 0 00-.6.316.531.531 0 00-.2.229 2.1 2.1 0 00-.1.48zm-3.891 5.15a11.7 11.7 0 001.836-2.226 4.5 4.5 0 00.8-1.9 5.92 5.92 0 00-1.539 1.735 15 15 0 00-1.096 2.392zm-15.26 14.251q.462.044 1.319.044a14.9 14.9 0 004.792-.786 4.046 4.046 0 00-2.352-.764 6.592 6.592 0 00-2.7.7 2.187 2.187 0 00-.528.393 1.485 1.485 0 00-.231.175q-.119.107-.3.238zm57.577 17.218a2.743 2.743 0 01-1.429-.393 2.775 2.775 0 01-1.033-1.08 3.08 3.08 0 01-.374-1.495v-.131q0-.131-.044-.611-1.209.764-1.715 1.113l-.637.458a14.419 14.419 0 01-1.627 1.091 5.485 5.485 0 01-1.671.458.916.916 0 01-.769-.262.989.989 0 01-.374-.764 5.542 5.542 0 01.286-1.986 8.585 8.585 0 012.44-3.339l.714-.611a8.837 8.837 0 011.11-.818 5.154 5.154 0 011.077-.513 2.6 2.6 0 01.857-.153 1.857 1.857 0 011.11.338 2.314 2.314 0 01.758 1.015q.022.044.11.306a.717.717 0 00.242.371.754.754 0 01.4.633 1.4 1.4 0 01-.176.611 9.243 9.243 0 00-.7 1.768 2.863 2.863 0 00-.132.873 1.762 1.762 0 00.681 1.484 2.053 2.053 0 001.3.349 5.1 5.1 0 002.44-.786q1.539-.851 4.155-2.575a29.371 29.371 0 002.352-1.811q.22-.175.55-.458a1.18 1.18 0 01.11.436 1.1 1.1 0 01-.4.742l-.418.415a9.522 9.522 0 01-1.033.982l-.9.677q-2.418 1.833-3.693 2.641a6.881 6.881 0 01-3.567 1.025zm-8.309-1.855a15.426 15.426 0 002.979-1.735q1.4-1.037 3-2.477a5.625 5.625 0 00-.047-.807.881.881 0 00-.341-.589 1.009 1.009 0 00-.648-.24 1.22 1.22 0 00-.242.044 4.026 4.026 0 00-.923.48 16.851 16.851 0 00-2.011 1.7 7.4 7.4 0 00-1.374 1.9 3.9 3.9 0 01-.2.382 2.917 2.917 0 00-.209.436 1.214 1.214 0 00-.077.426 1.388 1.388 0 00.093.481zm22.707 2.248q-.22.022-.659.022a5.78 5.78 0 01-3.8-1.288 3.591 3.591 0 01-1-1.3 3.845 3.845 0 01-.341-1.6 4.451 4.451 0 01.308-1.593 13.347 13.347 0 011.934-3.252 7.964 7.964 0 011.088-1.124q.583-.491 1.506-1.168l.484-.371a2.443 2.443 0 01.868-.393 4.234 4.234 0 011.044-.131 1.857 1.857 0 011.418.6 2.049 2.049 0 01.561 1.451 2.755 2.755 0 01-.725 1.942 20.088 20.088 0 01-4.484 3.666 7.745 7.745 0 01-1.6.655l-.9.306a6.137 6.137 0 00.846 1.255 2.352 2.352 0 001.066.666q.154.044.616.185a8.626 8.626 0 00.846.218 3.684 3.684 0 00.714.076 2.744 2.744 0 001.6-.524 1.319 1.319 0 00.286.022 2.432 2.432 0 00.747-.12 6.317 6.317 0 00.857-.36 5.954 5.954 0 011.205-.46 2.237 2.237 0 00.769-.306l.506-.306.572-.349q1.363-.807 2.946-1.811a2.2 2.2 0 00.451-.371q.231-.24.319-.327.484-.436 1.385-1.288a1.239 1.239 0 01.154.546 1.153 1.153 0 01-.462.829q-1.517 1.462-2.352 2.117-.967.764-3.034 2.16a10.186 10.186 0 01-3.671 1.375l-.725.131a6.54 6.54 0 01-1.343.22zm-4.089-5.107q.176-.022.319-.033a.61.61 0 00.187-.033l.528-.327q.22-.131 1.374-.829t2.121-1.4a4.355 4.355 0 001.055-1.178l.286-.371a1.2 1.2 0 00.264-.677.893.893 0 00-.2-.546 1.01 1.01 0 00-.341-.251 1.046 1.046 0 00-.451-.1 1.09 1.09 0 00-.594.153 13.255 13.255 0 00-1.077.786l-.616.458a5.53 5.53 0 00-1.319 1.255 13.71 13.71 0 00-1.1 1.757 4.544 4.544 0 00-.286.807zm11.673 9.387a.7.7 0 01-.561-.218.809.809 0 01-.187-.546v-.111a1.838 1.838 0 01.089-.459l.308-.611q.2-.415.44-.873t.484-.982l1.693-3.426q.154-.327.3-.567t.231-.415q.374-.655.44-.764l.33-.7.418-.829-.11-.2a4.509 4.509 0 01-.681-.687.97.97 0 01-.22-.578 1.051 1.051 0 01.132-.491 3.845 3.845 0 01.44-.622 10.244 10.244 0 011.737-1.528q.022-.022.352-.284a1.586 1.586 0 01.9-.109.723.723 0 01.473.24.558.558 0 01.1.5 16.916 16.916 0 01-.55 1.92q-.066.175-.2.491a1.984 1.984 0 00-.154.622q.528-.415.572-.436l1.253-.982q.088-.065.341-.262a.946.946 0 01.473-.218l.44-.044q.22-.022.44-.022a.953.953 0 01.78.284 1.961 1.961 0 01.253 1.113q.044.742.132 1.418a.678.678 0 00.264.491 1.222 1.222 0 00.616.12 6.582 6.582 0 002.3-.447 14.215 14.215 0 002.341-1.211.9.9 0 01.462-.2q.2 0 .374.284a3.086 3.086 0 01-.692.72 9.858 9.858 0 01-1.066.677 17.688 17.688 0 01-3.165 1.4 2.4 2.4 0 01-.835.131 2.744 2.744 0 01-1.1-.218q-.44-.175-.813-1.309a8.909 8.909 0 01-.2-1.244l-.066-.611a5.028 5.028 0 00-1.407.786 10.564 10.564 0 00-1.055.971q-.462.491-.616.644a23.032 23.032 0 00-1.912 2.27q-1.077 1.637-2.11 3.513-.33.633-1.143 2.357l-.22.48-.242.415a.707.707 0 01-.603.357zm4.924-12.024l-.176-.153-.264.415.154.109zm13.608 7.724a2.345 2.345 0 01-.813.175 2.128 2.128 0 01-1.143-.327 2.786 2.786 0 01-.857-.818 1.9 1.9 0 01-.352-.971q-.022-.218-.022-.677a10.133 10.133 0 01.857-3.906l.594-1.462q.088-.153.308-.458a3.076 3.076 0 01.2-.262 2.124 2.124 0 00.22-.327 1.424 1.424 0 00.088-.153.507.507 0 01.088-.131.846.846 0 01.7-.393.414.414 0 01.22.044.574.574 0 01.286.524.878.878 0 01-.11.436q-.4.938-1.319 2.815a6.921 6.921 0 00-.769 3.47 1.431 1.431 0 00.319.938.954.954 0 00.736.327 1.716 1.716 0 00.813-.24 13.675 13.675 0 003.275-2.488l1.19-1.246q2.374-2.488 2.33-2.444.2-.218.55-.7l.4-.524q.352-.5.681-.5a.678.678 0 01.264.087.69.69 0 01.264.316 1.12 1.12 0 01.11.491.671.671 0 01-.066.306 3.11 3.11 0 01-.242.5 4.38 4.38 0 00-.264.524 4.267 4.267 0 00-.176.458q-.33.786-.9 2.313a2.918 2.918 0 00-.154.677.824.824 0 00.165.546.583.583 0 00.473.2 1.944 1.944 0 00.286-.044 6.364 6.364 0 001.779-.766 14.658 14.658 0 001.748-1.288q.923-.807 1.363-1.277a8.065 8.065 0 00.945-1.3.557.557 0 01.165-.142q.121-.076.209-.142a.6.6 0 01.2.436.9.9 0 01-.055.306l-.077.218a2.669 2.669 0 01-.264.48q-.176.262-.242.371a17.9 17.9 0 01-1.231 1.517 8.394 8.394 0 01-1.341 1.1q-1.121.786-1.868 1.211a4.987 4.987 0 01-1.649.578 2.437 2.437 0 01-.374.022 1.546 1.546 0 01-1.044-.349 1.432 1.432 0 01-.473-.982 4.655 4.655 0 01-.044-.546l.022-.829a2.229 2.229 0 00-.7.491l-.374.382a15.921 15.921 0 01-4.925 3.433zm12.2-1.659a.681.681 0 01-.374-.567.817.817 0 01.066-.327q.132-.327.637-1.833.725-2.2.9-2.619.462-1.091.989-2.16.2-.415.923-1.746a.734.734 0 01.659-.436q.4 0 .506.185a1.215 1.215 0 01.132.535q.022.175.066.4t.066.338a1.852 1.852 0 01.066.436.417.417 0 01-.143.338 2.07 2.07 0 01-.539.273.908.908 0 00-.506.426 2.5 2.5 0 00-.2.611q-.066.338-.11.513l.374-.262q.9-.655 1.319-.917a18.646 18.646 0 011.8-1.047 1.86 1.86 0 01.835-.175 2 2 0 01.956.24 2.166 2.166 0 01.758.677 4.439 4.439 0 01.473.829 2.177 2.177 0 01.165.851 1.2 1.2 0 00.1.426q.1.251.143.4l2.154-1.7a18.428 18.428 0 012.374-1.56 5.343 5.343 0 012.242-.6 1.259 1.259 0 01.7.142 2.44 2.44 0 01.594.513 2.555 2.555 0 01.616 1.1 5.507 5.507 0 01.168 1.368l-.022 1.091a3.935 3.935 0 00.088.84 9.726 9.726 0 00.286.993.638.638 0 00.813.48q.769-.109.945-.153l1.781-.546 1.539-.48a6.011 6.011 0 002.088-1.331q.11-.109.363-.349a2.977 2.977 0 01.506-.393 2.543 2.543 0 01.517-.24.785.785 0 01.176.458.821.821 0 01-.352.567q-.088.087-.681.589a11.231 11.231 0 01-1.209.895 14.593 14.593 0 01-4.99 2.16 3.191 3.191 0 01-.769.087 2.236 2.236 0 01-1.66-.655 2.841 2.841 0 01-.758-1.789q-.066-.764-.066-1.484l-.044-1q-.088-1.506-1.033-1.506a2.216 2.216 0 00-1.121.371l-.7.415q-.7.393-1.033.611a11.591 11.591 0 00-.923.786l-.462.393-.374.327q-.747.655-1.165.96a1.537 1.537 0 01-.879.327.978.978 0 01-.714-.295 1.457 1.457 0 01-.385-.818q-.088-.415-.176-1.244a.45.45 0 00-.022-.175q-.2-1-1.011-1a1.608 1.608 0 00-.506.087 3.627 3.627 0 00-.824.36q-.385.229-.912.6l-.374.284a15.019 15.019 0 00-1.506 1.178 7.293 7.293 0 00-1.231 1.528 8.573 8.573 0 00-.978 2.357q-.066.262-.44.262a1.241 1.241 0 01-.691-.201zm27.06 2.139a1.22 1.22 0 01-1.121-.633 2.627 2.627 0 01-.484-1.528 2.772 2.772 0 01.088-.72 13.061 13.061 0 01.67-2.019 5.771 5.771 0 011.044-1.6 1.3 1.3 0 01.264-.611 7.034 7.034 0 01.594-.611 3.312 3.312 0 00.725-.851.33.33 0 01.264-.218 1.169 1.169 0 00.429-.131 2.073 2.073 0 00.319-.2q.11-.087.176-.131a3.117 3.117 0 01.528-.349 3.486 3.486 0 011.912-.393.792.792 0 01.692.436 2.237 2.237 0 01.231 1.091 5.447 5.447 0 01-.725 2.619 24.3 24.3 0 01-2.968 4.343 6.939 6.939 0 01-1.242 1.1 2.455 2.455 0 01-1.396.405zm.022-1.266a5.547 5.547 0 001.967-1.408 11.574 11.574 0 001.539-2.139q.671-1.189 1.682-3.263a.894.894 0 00-.044-.458 3.791 3.791 0 01-.11-.458l-.462.175q-.352.131-.44.175l.022.546a.6.6 0 01-.044.262 1.558 1.558 0 01-.637.72.246.246 0 01-.11.022.281.281 0 01-.231-.142q-.1-.142-.187-.295l-.066-.044a4.353 4.353 0 00-.967.84 13.577 13.577 0 00-.9 1.233q-.022.044-.242.371a5.654 5.654 0 00-.616 1.353 12.685 12.685 0 00-.374 1.68.707.707 0 00.066.436q.11.262.154.393zm21.827.719a3.347 3.347 0 01-.44.022 2.1 2.1 0 01-1.473-.524 2.2 2.2 0 01-.659-1.484q-.044-.48-.044-.7a7.542 7.542 0 01.264-1.964 16 16 0 01.725-2.073 2.056 2.056 0 00.22-.829 1.388 1.388 0 00-.088-.48 1.439 1.439 0 00-.616.044 4.594 4.594 0 00-.572.218l-.44.2a11.172 11.172 0 00-2.3 1.266q-1.066.764-2.517 2.008-1.253 1.091-2.44 2.226l-1.209 1.135a1.482 1.482 0 01-.22.2l-.341.175a2.919 2.919 0 01-.462.2 1.356 1.356 0 01-.407.065 1.051 1.051 0 01-.594-.175 1.069 1.069 0 01-.462-.96 4.379 4.379 0 01.088-.7 3.311 3.311 0 01.22-.556q.154-.316.22-.469l1.121-2.641q.066-.175.44-.96-.088.065-.308.218a.919.919 0 01-.4.175l-.132.022a.515.515 0 01-.462-.2.606.606 0 01-.154-.306.348.348 0 01.022-.284l.308-.48a7.066 7.066 0 01.758-1.058 2.423 2.423 0 01.89-.622 4.579 4.579 0 01.44-.175 3.641 3.641 0 01.418-.044q.747 0 .747.7a2.038 2.038 0 01-.154.742q-.374 1-1.451 3.4-.11.24-.616 1.418l-.506 1.2 2.386-2.118q.044-.044.813-.677l.528-.436q.44-.349.659-.546 1.3-1.026 1.715-1.331.835-.567 1.3-.84a4.045 4.045 0 011.055-.426 1.424 1.424 0 00.44-.229 1.777 1.777 0 01.4-.229l.462-.131a5.375 5.375 0 011.473-.306 1.337 1.337 0 01.967.338 1.2 1.2 0 01.352.906 1.792 1.792 0 01-.022.327 12.021 12.021 0 01-.418 1.549q-.11.306-.286.917l-.154.567a8.038 8.038 0 00-.418 2.2q0 1.288 1.055 1.288a2.326 2.326 0 00.725-.131 7.344 7.344 0 001-.426q.539-.273 1.022-.556l.374-.218 1.253-.655a19.806 19.806 0 002.2-1.222 12.67 12.67 0 002.418-2.139q.2-.218.484-.491t.44-.426a.648.648 0 01.308.48.941.941 0 01-.22.48 16.7 16.7 0 01-3.231 3.142q-1.253.873-2.77 1.789l-.769.48a7.118 7.118 0 01-2.955 1.12z" fill="#d136d1"/></svg>